<svg width="256" height="257" viewBox="0 0 256 257" fill="none" xmlns="http://www.w3.org/2000/svg">
<g clip-path="url(#clip0_9_48)">
<rect width="256" height="256" transform="translate(0 0.0843506)" fill="#010101"/>
<rect width="256" height="256" transform="translate(0 0.0843506)" fill="url(#paint0_linear_9_48)" fill-opacity="0.3"/>
<g style="mix-blend-mode:overlay">
<path d="M114.227 145.493V143.312C114.227 138.312 114.621 134.327 115.409 131.357C116.197 128.387 117.364 126.009 118.909 124.221C120.455 122.403 122.348 120.766 124.591 119.312C126.53 118.039 128.258 116.812 129.773 115.63C131.318 114.448 132.53 113.19 133.409 111.857C134.318 110.524 134.773 109.009 134.773 107.312C134.773 105.796 134.409 104.463 133.682 103.312C132.955 102.16 131.97 101.266 130.727 100.63C129.485 99.9934 128.106 99.6752 126.591 99.6752C124.955 99.6752 123.439 100.054 122.045 100.812C120.682 101.569 119.576 102.615 118.727 103.948C117.909 105.281 117.5 106.827 117.5 108.584H94.2273C94.2879 101.918 95.803 96.5086 98.7727 92.3571C101.742 88.1753 105.682 85.1146 110.591 83.1752C115.5 81.2056 120.894 80.2207 126.773 80.2207C133.258 80.2207 139.045 81.1752 144.136 83.0843C149.227 84.9631 153.242 87.8116 156.182 91.6298C159.121 95.4177 160.591 100.16 160.591 105.857C160.591 109.524 159.955 112.751 158.682 115.539C157.439 118.296 155.697 120.736 153.455 122.857C151.242 124.948 148.652 126.857 145.682 128.584C143.5 129.857 141.667 131.175 140.182 132.539C138.697 133.872 137.576 135.403 136.818 137.13C136.061 138.827 135.682 140.887 135.682 143.312V145.493H114.227ZM125.318 176.039C121.803 176.039 118.788 174.812 116.273 172.357C113.788 169.872 112.561 166.857 112.591 163.312C112.561 159.857 113.788 156.903 116.273 154.448C118.788 151.993 121.803 150.766 125.318 150.766C128.652 150.766 131.591 151.993 134.136 154.448C136.712 156.903 138.015 159.857 138.045 163.312C138.015 165.675 137.394 167.827 136.182 169.766C135 171.675 133.455 173.206 131.545 174.357C129.636 175.478 127.561 176.039 125.318 176.039Z" fill="white"/>
</g>
<rect x="7.5" y="7.58435" width="241" height="241" stroke="white" stroke-opacity="0.2" stroke-width="15"/>
</g>
<defs>
<linearGradient id="paint0_linear_9_48" x1="166.969" y1="3.06216e-06" x2="89.0308" y2="256" gradientUnits="userSpaceOnUse">
<stop stop-color="#EEEEEE"/>
<stop offset="1" stop-color="#969696"/>
</linearGradient>
<clipPath id="clip0_9_48">
<rect width="256" height="256" fill="white" transform="translate(0 0.0843506)"/>
</clipPath>
</defs>
</svg>
