<svg width="256" height="256" viewBox="0 0 256 256" fill="none" xmlns="http://www.w3.org/2000/svg">
<rect width="256" height="256" fill="#010101"/>
<rect width="256" height="256" fill="url(#paint0_linear_64_5)" fill-opacity="0.3"/>
<path opacity="0.7" d="M107.438 154.457V151.133C107.438 143.514 108.038 137.442 109.237 132.917C110.436 128.392 112.212 124.768 114.564 122.044C116.916 119.273 119.798 116.78 123.211 114.564C126.163 112.624 128.791 110.754 131.097 108.954C133.449 107.153 135.294 105.237 136.632 103.205C138.015 101.173 138.707 98.8646 138.707 96.2789C138.707 93.9703 138.153 91.9387 137.047 90.1841C135.94 88.4295 134.441 87.0674 132.55 86.0977C130.659 85.1281 128.561 84.6433 126.255 84.6433C123.764 84.6433 121.458 85.2204 119.337 86.3748C117.262 87.5291 115.578 89.1221 114.287 91.1537C113.042 93.1853 112.419 95.5402 112.419 98.2182H77C77.0922 88.0601 79.3982 79.8182 83.9178 73.4924C88.4374 67.1205 94.4329 62.457 101.904 59.5019C109.375 56.5006 117.584 55 126.532 55C136.401 55 145.21 56.4545 152.958 59.3634C160.705 62.2261 166.816 66.5664 171.29 72.3842C175.763 78.1559 178 85.382 178 94.0626C178 99.6496 177.032 104.567 175.095 108.815C173.204 113.017 170.552 116.734 167.139 119.966C163.772 123.152 159.829 126.061 155.31 128.693C151.989 130.632 149.199 132.64 146.939 134.718C144.679 136.75 142.973 139.082 141.82 141.713C140.667 144.299 140.09 147.439 140.09 151.133V154.457H107.438ZM124.318 201C118.968 201 114.379 199.13 110.551 195.39C106.77 191.604 104.902 187.009 104.948 181.607C104.902 176.343 106.77 171.842 110.551 168.102C114.379 164.361 118.968 162.491 124.318 162.491C129.391 162.491 133.864 164.361 137.738 168.102C141.658 171.842 143.642 176.343 143.688 181.607C143.642 185.209 142.696 188.487 140.851 191.442C139.053 194.351 136.701 196.683 133.795 198.437C130.89 200.146 127.731 201 124.318 201Z" fill="white"/>
<defs>
<linearGradient id="paint0_linear_64_5" x1="166.969" y1="3.06216e-06" x2="89.0308" y2="256" gradientUnits="userSpaceOnUse">
<stop stop-color="#EEEEEE"/>
<stop offset="1" stop-color="#969696"/>
</linearGradient>
</defs>
</svg>
