<svg width="16" height="16" viewBox="0 0 16 16" fill="none" xmlns="http://www.w3.org/2000/svg">
<path d="M12.7122 7.45477C12.0941 6.37902 11.1194 5.53431 9.94937 5.08187L11.8672 1.42135H16L12.7122 7.45477Z" fill="#E0E0E0"/>
<path d="M6.04514 5.07244C4.87365 5.51895 3.896 6.35811 3.27287 7.42901L0 1.42135H4.13284L6.04514 5.07244Z" fill="#E0E0E0"/>
<path fill-rule="evenodd" clip-rule="evenodd" d="M7.98507 5.75137C10.4227 5.75137 12.3987 7.72742 12.3987 10.165C12.3987 12.6026 10.4227 14.5787 7.98507 14.5787C5.54748 14.5787 3.57143 12.6026 3.57142 10.165C3.57142 7.72742 5.54748 5.75137 7.98507 5.75137ZM7.98507 6.61341C6.02357 6.61341 4.43346 8.20351 4.43346 10.165C4.43346 12.1265 6.02357 13.7166 7.98507 13.7166C9.94656 13.7166 11.5367 12.1265 11.5367 10.165C11.5367 8.20351 9.94656 6.61341 7.98507 6.61341Z" fill="#E0E0E0"/>
<path d="M7.97013 8.07795L8.70447 9.25904L10.0547 9.59246L9.15832 10.6558L9.25845 12.043L7.97013 11.5191L6.68182 12.043L6.78194 10.6558L5.88559 9.59246L7.23579 9.25904L7.97013 8.07795Z" fill="#E0E0E0"/>
</svg>
