<svg width="580" height="143" viewBox="0 0 580 143" fill="none" xmlns="http://www.w3.org/2000/svg">
<path d="M124.526 66.3048C118.86 56.4441 109.925 48.7012 99.2001 44.5539L116.779 11H154.663L124.526 66.3048Z" fill="#E0E0E0"/>
<path d="M63.4122 44.4674C52.6739 48.5604 43.7124 56.2524 38.0005 66.0687L8 11H45.8833L63.4122 44.4674Z" fill="#E0E0E0"/>
<path fill-rule="evenodd" clip-rule="evenodd" d="M81.1944 50.6908C103.538 50.6908 121.652 68.8041 121.652 91.148C121.652 113.492 103.538 131.605 81.1944 131.605C58.8505 131.605 40.7372 113.492 40.7371 91.148C40.7371 68.8041 58.8505 50.6908 81.1944 50.6908ZM81.1944 58.5926C63.2145 58.5926 48.6389 73.1682 48.6389 91.148C48.639 109.128 63.2145 123.704 81.1944 123.704C99.1743 123.703 113.75 109.128 113.75 91.148C113.75 73.1682 99.1743 58.5926 81.1944 58.5926Z" fill="#E0E0E0"/>
<path d="M81.0575 72.0172L87.7888 82.8435L100.165 85.8998L91.949 95.6471L92.8668 108.362L81.0575 103.56L69.2483 108.362L70.1661 95.6471L61.9497 85.8998L74.3263 82.8435L81.0575 72.0172Z" fill="#E0E0E0"/>
<path d="M221.442 43.795C221.787 43.2908 222.311 43.0387 223.015 43.0387H234.151C234.471 43.0387 234.705 43.1647 234.852 43.4168C235.075 43.6059 235.159 43.858 235.103 44.1732L223.834 108.083C223.778 108.398 223.6 108.682 223.3 108.934C223.075 109.123 222.802 109.218 222.482 109.218H211.25C210.93 109.218 210.659 109.123 210.436 108.934C210.288 108.682 210.242 108.398 210.298 108.083L217.783 65.6341C217.827 65.382 217.786 65.2559 217.658 65.2559C217.53 65.2559 217.385 65.3505 217.224 65.5396L207.435 78.5863C207.026 79.0905 206.726 79.3426 206.534 79.3426C206.342 79.3426 206.13 79.0905 205.899 78.5863L200.712 65.5396C200.617 65.3505 200.506 65.2559 200.378 65.2559C200.25 65.2559 200.163 65.382 200.119 65.6341L192.634 108.083C192.578 108.398 192.4 108.682 192.1 108.934C191.875 109.123 191.602 109.218 191.282 109.218H180.05C179.73 109.218 179.459 109.123 179.236 108.934C179.088 108.682 179.042 108.398 179.098 108.083L190.367 44.1732C190.423 43.858 190.563 43.6059 190.788 43.4168C191.089 43.1647 191.399 43.0387 191.719 43.0387H202.759C203.399 43.0387 203.835 43.2908 204.066 43.795L209.959 58.8271C210.107 59.0792 210.299 59.0792 210.535 58.8271L221.442 43.795ZM232.932 109.218C232.612 109.218 232.34 109.123 232.118 108.934C231.97 108.682 231.924 108.398 231.98 108.083L243.249 44.1732C243.304 43.858 243.445 43.6059 243.67 43.4168C243.971 43.1647 244.281 43.0387 244.601 43.0387H255.833C256.153 43.0387 256.387 43.1647 256.534 43.4168C256.757 43.6059 256.84 43.858 256.785 44.1732L245.516 108.083C245.46 108.398 245.282 108.682 244.982 108.934C244.756 109.123 244.484 109.218 244.164 109.218H232.932ZM255.057 109.218C254.737 109.218 254.465 109.123 254.243 108.934C254.095 108.682 254.049 108.398 254.105 108.083L265.374 44.1732C265.429 43.858 265.57 43.6059 265.795 43.4168C266.096 43.1647 266.406 43.0387 266.726 43.0387H277.958C278.278 43.0387 278.512 43.1647 278.659 43.4168C278.882 43.6059 278.965 43.858 278.91 44.1732L269.541 97.3055C269.485 97.6207 269.618 97.7782 269.938 97.7782H290.098C290.418 97.7782 290.651 97.9043 290.799 98.1564C291.022 98.3455 291.105 98.5976 291.05 98.9127L289.433 108.083C289.377 108.398 289.199 108.682 288.899 108.934C288.673 109.123 288.401 109.218 288.081 109.218H255.057ZM339.864 53.3437C339.808 53.6588 339.63 53.9425 339.33 54.1946C339.104 54.3837 338.832 54.4782 338.512 54.4782H318.448C318.128 54.4782 317.94 54.6358 317.884 54.9509L315.25 69.8885C315.195 70.2036 315.327 70.3612 315.647 70.3612H327.167C327.487 70.3612 327.721 70.4872 327.868 70.7393C328.091 70.9284 328.175 71.1805 328.119 71.4957L326.502 80.6662C326.446 80.9813 326.268 81.265 325.968 81.5171C325.743 81.7062 325.47 81.8007 325.15 81.8007H313.63C313.31 81.8007 313.122 81.9583 313.067 82.2734L310.416 97.3055C310.36 97.6207 310.493 97.7782 310.813 97.7782H330.877C331.197 97.7782 331.43 97.9043 331.578 98.1564C331.801 98.3455 331.884 98.5976 331.829 98.9127L330.212 108.083C330.156 108.398 329.978 108.682 329.678 108.934C329.452 109.123 329.18 109.218 328.86 109.218H295.932C295.612 109.218 295.34 109.123 295.118 108.934C294.97 108.682 294.924 108.398 294.98 108.083L306.249 44.1732C306.304 43.858 306.445 43.6059 306.67 43.4168C306.971 43.1647 307.281 43.0387 307.601 43.0387H340.529C340.849 43.0387 341.083 43.1647 341.23 43.4168C341.453 43.6059 341.536 43.858 341.481 44.1732L339.864 53.3437ZM354.02 109.974C350.308 109.974 347.172 109.249 344.611 107.8C342.051 106.35 340.231 104.333 339.15 101.749C338.081 99.1018 337.847 96.0765 338.447 92.673L338.93 89.9313C338.986 89.6161 339.126 89.364 339.351 89.1749C339.652 88.9228 339.962 88.7968 340.282 88.7968H351.322C351.642 88.7968 351.876 88.9228 352.023 89.1749C352.246 89.364 352.33 89.6161 352.274 89.9313L351.907 92.0112C351.563 93.965 351.797 95.5407 352.61 96.7383C353.423 97.9358 354.597 98.5346 356.133 98.5346C357.669 98.5346 359.049 97.9673 360.273 96.8328C361.497 95.6983 362.27 94.2172 362.593 92.3894C362.926 90.4985 362.569 88.8913 361.523 87.5677C360.487 86.1811 358.347 84.1642 355.102 81.5171C352.302 79.2481 350.065 77.2312 348.393 75.4664C346.72 73.7016 345.407 71.5272 344.455 68.9431C343.503 66.3589 343.326 63.3651 343.927 59.9616C344.871 54.6043 347.323 50.3184 351.282 47.104C355.24 43.8895 360.004 42.2823 365.572 42.2823C371.204 42.2823 375.421 43.9526 378.224 47.293C381.091 50.6335 382.047 55.0139 381.091 60.4343L380.691 62.7033C380.636 63.0184 380.458 63.3021 380.157 63.5542C379.932 63.7433 379.659 63.8378 379.339 63.8378H368.299C367.979 63.8378 367.708 63.7433 367.485 63.5542C367.338 63.3021 367.292 63.0184 367.347 62.7033L367.797 60.1507C368.142 58.1968 367.902 56.6527 367.078 55.5182C366.329 54.3206 365.155 53.7219 363.555 53.7219C362.019 53.7219 360.671 54.2891 359.511 55.4236C358.362 56.4951 357.615 58.0077 357.271 59.9616C356.937 61.8524 357.251 63.5227 358.211 64.9723C359.171 66.4219 361.216 68.4388 364.344 71.023C367.801 73.9222 370.36 76.2858 372.022 78.1136C373.759 79.8784 374.977 81.8637 375.676 84.0697C376.45 86.2126 376.57 88.7968 376.037 91.8221C375.059 97.3685 372.553 101.78 368.519 105.058C364.485 108.335 359.652 109.974 354.02 109.974ZM427.884 43.0387C428.204 43.0387 428.438 43.1647 428.586 43.4168C428.808 43.6059 428.892 43.858 428.836 44.1732L427.219 53.3437C427.164 53.6588 426.986 53.9425 426.685 54.1946C426.46 54.3837 426.187 54.4782 425.867 54.4782H413.867C413.547 54.4782 413.359 54.6358 413.304 54.9509L403.935 108.083C403.88 108.398 403.702 108.682 403.401 108.934C403.176 109.123 402.903 109.218 402.583 109.218H391.351C391.031 109.218 390.76 109.123 390.537 108.934C390.39 108.682 390.344 108.398 390.399 108.083L399.768 54.9509C399.823 54.6358 399.691 54.4782 399.371 54.4782H387.851C387.531 54.4782 387.26 54.3837 387.037 54.1946C386.89 53.9425 386.844 53.6588 386.899 53.3437L388.516 44.1732C388.572 43.858 388.712 43.6059 388.938 43.4168C389.238 43.1647 389.548 43.0387 389.868 43.0387H427.884ZM440.391 109.974C434.503 109.974 430.099 108.272 427.179 104.869C424.259 101.465 423.299 96.9273 424.299 91.2549L429.634 61.0016C430.634 55.3291 433.194 50.7911 437.314 47.3876C441.435 43.9841 446.439 42.2823 452.327 42.2823C458.215 42.2823 462.619 43.9841 465.538 47.3876C468.522 50.7911 469.514 55.3291 468.514 61.0016L463.179 91.2549C462.179 96.9273 459.587 101.465 455.403 104.869C451.283 108.272 446.279 109.974 440.391 109.974ZM442.408 98.5346C444.2 98.5346 445.745 97.9358 447.045 96.7383C448.355 95.4777 449.188 93.839 449.543 91.8221L455.078 60.4343C455.434 58.4174 455.173 56.8102 454.296 55.6127C453.43 54.3521 452.102 53.7219 450.31 53.7219C448.518 53.7219 446.966 54.3521 445.656 55.6127C444.421 56.8102 443.626 58.4174 443.27 60.4343L437.735 91.8221C437.38 93.839 437.603 95.4777 438.405 96.7383C439.281 97.9358 440.616 98.5346 442.408 98.5346ZM506.392 44.1732C506.448 43.858 506.588 43.6059 506.814 43.4168C507.114 43.1647 507.424 43.0387 507.744 43.0387H518.88C519.2 43.0387 519.434 43.1647 519.582 43.4168C519.804 43.6059 519.888 43.858 519.832 44.1732L508.563 108.083C508.508 108.398 508.33 108.682 508.029 108.934C507.804 109.123 507.531 109.218 507.211 109.218H494.539C493.899 109.218 493.539 108.903 493.458 108.272L488.005 71.6848C487.975 71.4957 487.858 71.4326 487.655 71.4957C487.527 71.4957 487.446 71.5902 487.413 71.7793L481.107 108.083C481.052 108.398 480.874 108.682 480.573 108.934C480.348 109.123 480.075 109.218 479.755 109.218H468.619C468.299 109.218 468.028 109.123 467.805 108.934C467.658 108.682 467.612 108.398 467.667 108.083L478.936 44.1732C478.992 43.858 479.132 43.6059 479.358 43.4168C479.658 43.1647 479.968 43.0387 480.288 43.0387H492.864C493.504 43.0387 493.865 43.3538 493.946 43.9841L499.494 80.5717C499.525 80.7607 499.604 80.8553 499.732 80.8553C499.935 80.7923 500.054 80.6662 500.087 80.4771L506.392 44.1732ZM561.864 53.3437C561.808 53.6588 561.63 53.9425 561.33 54.1946C561.104 54.3837 560.832 54.4782 560.512 54.4782H540.448C540.128 54.4782 539.94 54.6358 539.884 54.9509L537.25 69.8885C537.195 70.2036 537.327 70.3612 537.647 70.3612H549.167C549.487 70.3612 549.721 70.4872 549.868 70.7393C550.091 70.9284 550.175 71.1805 550.119 71.4957L548.502 80.6662C548.446 80.9813 548.268 81.265 547.968 81.5171C547.743 81.7062 547.47 81.8007 547.15 81.8007H535.63C535.31 81.8007 535.122 81.9583 535.067 82.2734L532.416 97.3055C532.36 97.6207 532.493 97.7782 532.813 97.7782H552.877C553.197 97.7782 553.43 97.9043 553.578 98.1564C553.801 98.3455 553.884 98.5976 553.829 98.9127L552.212 108.083C552.156 108.398 551.978 108.682 551.678 108.934C551.452 109.123 551.18 109.218 550.86 109.218H517.932C517.612 109.218 517.34 109.123 517.118 108.934C516.97 108.682 516.924 108.398 516.98 108.083L528.249 44.1732C528.304 43.858 528.445 43.6059 528.67 43.4168C528.971 43.1647 529.281 43.0387 529.601 43.0387H562.529C562.849 43.0387 563.083 43.1647 563.23 43.4168C563.453 43.6059 563.536 43.858 563.481 44.1732L561.864 53.3437Z" fill="#E0E0E0"/>
</svg>
