<svg width="256" height="256" viewBox="0 0 256 256" fill="none" xmlns="http://www.w3.org/2000/svg">
<rect x="7.5" y="7.5" width="241" height="241" fill="#232C3F"/>
<rect x="7.5" y="7.5" width="241" height="241" stroke="#39496C" stroke-width="15"/>
<path d="M47.1633 122.367C45.8379 122.907 44.9019 124.114 44.709 125.532L34.6485 199.477L49.2122 177.38C49.5261 176.904 49.7345 176.366 49.8234 175.803L59.0236 117.535L47.1633 122.367Z" fill="#848484"/>
<path fill-rule="evenodd" clip-rule="evenodd" d="M59.0236 117.535H196.458L205.134 175.72C205.226 176.337 205.461 176.923 205.821 177.433L221.352 199.477H34.6485L49.2122 177.38C49.5261 176.904 49.7345 176.366 49.8234 175.803L59.0236 117.535Z" fill="#979797"/>
<path d="M221.352 199.477L211.296 125.566C211.1 124.13 210.143 122.912 208.795 122.382L196.458 117.535L205.134 175.72C205.226 176.337 205.461 176.923 205.821 177.433L221.352 199.477Z" fill="#C7C7C7"/>
<path d="M56.711 119.262C56.8475 118.272 57.6932 117.535 58.6922 117.535H196.271C197.27 117.535 198.115 118.272 198.252 119.262L205.998 175.422C206.164 176.624 205.23 177.695 204.017 177.695H50.946C49.7328 177.695 48.799 176.624 48.9648 175.422L56.711 119.262Z" fill="#D9D9D9"/>
<rect x="87.7698" y="152.83" width="76.0948" height="3.74579" fill="black" fill-opacity="0.35"/>
<path d="M137.288 51.5229V102.497L141.197 99.5727L144.192 97.3315L147.188 99.5727L156.245 106.35L161.596 110.353L156.245 114.357L129.071 134.69L126.075 136.931L125.817 136.738L125.559 136.931L122.564 134.69L95.389 114.357L90.0384 110.353L95.389 106.35L104.447 99.5727L107.443 97.3315L110.438 99.5727L114.478 102.595V51.5229H137.288Z" fill="#B8B8B8" stroke="#232C3F" stroke-width="10"/>
</svg>
