<svg width="256" height="256" viewBox="0 0 256 256" fill="none" xmlns="http://www.w3.org/2000/svg">
<path d="M63.6905 171.577C68.5549 174.552 74.2266 176.342 80.3042 176.543L94.4248 177.009L104.74 186.664L105.359 187.229C108.158 189.725 111.271 191.673 114.557 193.085L92.6655 236.14C90.8763 239.658 85.9869 240.007 83.7155 236.779L64.9819 210.159C64.25 209.119 63.1647 208.381 61.9286 208.083L36.8201 202.022C32.4922 200.977 31.361 195.35 34.9483 192.712L63.6905 171.577Z" fill="#E0E0E0"/>
<path d="M221.052 192.712C224.639 195.35 223.508 200.977 219.18 202.022L194.071 208.083C192.835 208.381 191.75 209.119 191.018 210.159L172.285 236.779C170.013 240.007 165.124 239.658 163.335 236.14L141.44 193.083C144.972 191.566 148.305 189.432 151.262 186.664L161.575 177.009L175.696 176.543L176.535 176.505C182.293 176.174 187.66 174.406 192.299 171.569L221.052 192.712Z" fill="#E0E0E0"/>
<path d="M136.467 171.797C136.225 172.002 135.975 172.193 135.723 172.378C135.805 172.317 135.889 172.259 135.971 172.196L136.467 171.797Z" fill="#E0E0E0"/>
<path fill-rule="evenodd" clip-rule="evenodd" d="M119.054 20.5307C124.088 15.8195 131.912 15.8193 136.946 20.5307L149.417 32.2015C151.734 34.3697 154.759 35.6252 157.93 35.7303L175.001 36.2929C181.892 36.5209 187.426 42.0549 187.654 48.9456L188.219 66.0171C188.324 69.1886 189.577 72.2156 191.746 74.5324L203.419 87.0035C208.13 92.0374 208.13 99.8621 203.419 104.896L191.746 117.367C189.578 119.684 188.324 122.709 188.219 125.88L187.654 142.951C187.426 149.842 181.893 155.376 175.001 155.604L157.93 156.169C154.759 156.274 151.734 157.527 149.417 159.695L136.946 171.369C131.912 176.08 124.088 176.079 119.054 171.369L106.583 159.695C104.266 157.527 101.239 156.274 98.0673 156.169L80.9959 155.604C74.1051 155.376 68.5711 149.842 68.3432 142.951L67.7806 125.88C67.6755 122.709 66.4199 119.684 64.2517 117.367L52.5809 104.896C47.8695 99.862 47.8698 92.0375 52.5809 87.0035L64.2517 74.5324C66.4201 72.2156 67.6757 69.1886 67.7806 66.0171L68.3432 48.9456C68.5715 42.0551 74.1054 36.5213 80.9959 36.2929L98.0673 35.7303C101.239 35.6254 104.266 34.3699 106.583 32.2015L119.054 20.5307ZM135.156 55.5149C131.129 51.7461 124.868 51.7458 120.841 55.5149L116.806 59.2918C114.953 61.0265 112.531 62.031 109.994 62.1149L104.468 62.2965C98.956 62.4795 94.5297 66.9057 94.3467 72.4176L94.1651 77.9436C94.0812 80.4808 93.0768 82.9024 91.3421 84.7558L87.5652 88.791C83.7961 92.818 83.7963 99.0786 87.5652 103.106L91.3421 107.144C93.0766 108.997 94.081 111.416 94.1651 113.953L94.3467 119.479C94.5291 124.992 98.9556 129.417 104.468 129.6L109.994 129.784C112.531 129.868 114.953 130.87 116.806 132.605L120.841 136.384C124.868 140.153 131.129 140.153 135.156 136.384L139.194 132.605C141.047 130.871 143.467 129.869 146.003 129.784L151.529 129.6C157.042 129.418 161.468 124.992 161.651 119.479L161.835 113.953C161.919 111.417 162.921 108.997 164.655 107.144L168.435 103.106C172.203 99.0786 172.204 92.8179 168.435 88.791L164.655 84.7558C162.921 82.9024 161.919 80.4807 161.835 77.9436L161.651 72.4176C161.468 66.9053 157.042 62.4788 151.529 62.2965L146.003 62.1149C143.467 62.0308 141.047 61.0263 139.194 59.2918L135.156 55.5149Z" fill="#E0E0E0"/>
</svg>
