<svg width="508" height="123" viewBox="0 0 508 123" fill="none" xmlns="http://www.w3.org/2000/svg">
<path d="M22.0245 81.2042C24.2337 82.5554 26.8096 83.3682 29.5698 83.4596L35.9828 83.6709L40.6677 88.0562L40.9488 88.3129C42.2201 89.4461 43.6337 90.3311 45.1262 90.9724L35.1838 110.526C34.3712 112.124 32.1507 112.282 31.1191 110.816L22.611 98.7267C22.2786 98.2544 21.7857 97.9193 21.2243 97.7837L9.82101 95.0313C7.85547 94.5565 7.34172 92.0007 8.9709 90.8028L22.0245 81.2042Z" fill="#3FAFFF"/>
<path d="M93.4919 90.8028C95.1211 92.0007 94.6073 94.5566 92.6418 95.0313L81.2385 97.7837C80.6771 97.9193 80.1842 98.2544 79.8518 98.7267L71.3437 110.816C70.3121 112.282 68.0915 112.124 67.279 110.526L57.3355 90.9712C58.9393 90.2822 60.453 89.3134 61.7962 88.0562L66.48 83.6709L72.893 83.4596L73.2739 83.4421C75.8894 83.292 78.3266 82.4889 80.4336 81.2007L93.4919 90.8028Z" fill="#3FAFFF"/>
<path d="M55.0766 81.3041C54.9669 81.3972 54.8532 81.4838 54.7387 81.5677C54.7762 81.5403 54.8144 81.5137 54.8513 81.4853L55.0766 81.3041Z" fill="#E0E0E0"/>
<path fill-rule="evenodd" clip-rule="evenodd" d="M47.1684 12.6048C49.4546 10.4651 53.0082 10.465 55.2944 12.6048L60.9583 17.9052C62.0104 18.8899 63.3842 19.4601 64.8244 19.5079L72.5776 19.7633C75.7072 19.8669 78.2203 22.3802 78.324 25.5097L78.5807 33.2629C78.6283 34.7033 79.1974 36.078 80.1822 37.1302L85.4837 42.7941C87.6232 45.0803 87.6233 48.634 85.4837 50.9201L80.1822 56.5841C79.1976 57.6361 78.6284 59.0101 78.5807 60.4502L78.324 68.2034C78.2205 71.3331 75.7073 73.8462 72.5776 73.9498L64.8244 74.2064C63.3843 74.2542 62.0104 74.8233 60.9583 75.808L55.2944 81.1095C53.0082 83.2491 49.4546 83.2489 47.1684 81.1095L41.5044 75.808C40.4523 74.8232 39.0775 74.2541 37.6371 74.2064L29.8839 73.9498C26.7544 73.8461 24.2411 71.333 24.1376 68.2034L23.8821 60.4502C23.8343 59.01 23.2641 57.6362 22.2794 56.5841L16.979 50.9201C14.8392 48.634 14.8394 45.0804 16.979 42.7941L22.2794 37.1302C23.2642 36.078 23.8344 34.7033 23.8821 33.2629L24.1376 25.5097C24.2413 22.3803 26.7545 19.8671 29.8839 19.7633L37.6371 19.5079C39.0775 19.4602 40.4523 18.89 41.5044 17.9052L47.1684 12.6048ZM54.4814 28.4932C52.6524 26.7816 49.8091 26.7815 47.9802 28.4932L46.1475 30.2086C45.3058 30.9964 44.206 31.4526 43.0537 31.4907L40.544 31.5732C38.0407 31.6563 36.0305 33.6665 35.9474 36.1698L35.8649 38.6795C35.8268 39.8318 35.3706 40.9316 34.5828 41.7733L32.8675 43.6059C31.1557 45.4349 31.1558 48.2782 32.8675 50.1072L34.5828 51.941C35.3705 52.7826 35.8267 53.8815 35.8649 55.0337L35.9474 57.5433C36.0302 60.0469 38.0405 62.0568 40.544 62.14L43.0537 62.2236C44.206 62.2617 45.3058 62.7168 46.1475 63.5046L47.9802 65.2211C49.809 66.9328 52.6524 66.9325 54.4814 65.2211L56.3152 63.5046C57.1568 62.717 58.2558 62.2618 59.4079 62.2236L61.9176 62.14C64.4213 62.0571 66.4314 60.0471 66.5142 57.5433L66.5978 55.0337C66.636 53.8816 67.0912 52.7826 67.8788 51.941L69.5953 50.1072C71.3068 48.2782 71.307 45.4348 69.5953 43.6059L67.8788 41.7733C67.091 40.9316 66.6359 39.8317 66.5978 38.6795L66.5142 36.1698C66.4311 33.6663 64.4211 31.656 61.9176 31.5732L59.4079 31.4907C58.2557 31.4525 57.1569 30.9963 56.3152 30.2086L54.4814 28.4932Z" fill="#FFCC3F"/>
<path d="M151.036 40.5155C151.381 40.0113 151.873 39.7592 152.513 39.7592H166.337C166.657 39.7592 166.891 39.8852 167.039 40.1373C167.261 40.3264 167.345 40.5785 167.289 40.8937L158.054 93.2697C157.998 93.5848 157.82 93.8684 157.52 94.1206C157.295 94.3096 157.022 94.4042 156.702 94.4042H143.07C142.75 94.4042 142.479 94.3096 142.256 94.1206C142.108 93.8684 142.062 93.5848 142.118 93.2697L147.386 63.3945C147.419 63.2055 147.377 63.0794 147.26 63.0164C147.144 62.9534 147.004 63.0164 146.843 63.2055L141.214 69.5397C140.805 70.044 140.505 70.2961 140.313 70.2961C140.121 70.2961 139.909 70.044 139.678 69.5397L136.283 63.2055C136.188 63.0164 136.072 62.9534 135.932 63.0164C135.793 63.0794 135.707 63.2055 135.674 63.3945L130.406 93.2697C130.35 93.5848 130.172 93.8684 129.872 94.1206C129.647 94.3096 129.374 94.4042 129.054 94.4042H115.422C115.102 94.4042 114.831 94.3096 114.608 94.1206C114.46 93.8684 114.414 93.5848 114.47 93.2697L123.705 40.8937C123.761 40.5785 123.901 40.3264 124.127 40.1373C124.427 39.8852 124.737 39.7592 125.057 39.7592H138.977C139.617 39.7592 140.021 40.0113 140.188 40.5155L143.859 48.5515C143.954 48.7406 144.065 48.8352 144.193 48.8352C144.321 48.8352 144.434 48.7406 144.531 48.5515L151.036 40.5155ZM164.453 94.4042C164.133 94.4042 163.862 94.3096 163.639 94.1206C163.492 93.8684 163.446 93.5848 163.501 93.2697L172.736 40.8937C172.792 40.5785 172.933 40.3264 173.158 40.1373C173.458 39.8852 173.769 39.7592 174.089 39.7592H187.721C188.041 39.7592 188.274 39.8852 188.422 40.1373C188.645 40.3264 188.728 40.5785 188.672 40.8937L179.437 93.2697C179.382 93.5848 179.204 93.8684 178.903 94.1206C178.678 94.3096 178.405 94.4042 178.085 94.4042H164.453ZM185.828 94.4042C185.508 94.4042 185.237 94.3096 185.014 94.1206C184.867 93.8684 184.821 93.5848 184.876 93.2697L194.111 40.8937C194.167 40.5785 194.308 40.3264 194.533 40.1373C194.833 39.8852 195.144 39.7592 195.464 39.7592H209.096C209.416 39.7592 209.649 39.8852 209.797 40.1373C210.02 40.3264 210.103 40.5785 210.047 40.8937L203.063 80.5066C203.007 80.8217 203.139 80.9793 203.459 80.9793H221.507C221.827 80.9793 222.061 81.1053 222.209 81.3574C222.431 81.5465 222.515 81.7986 222.459 82.1138L220.492 93.2697C220.437 93.5848 220.259 93.8684 219.958 94.1206C219.733 94.3096 219.46 94.4042 219.14 94.4042H185.828ZM267.206 52.1441C267.15 52.4592 266.972 52.7429 266.672 52.995C266.446 53.1841 266.174 53.2786 265.854 53.2786H248.094C247.774 53.2786 247.586 53.4362 247.53 53.7513L246.463 59.802C246.408 60.1171 246.54 60.2747 246.86 60.2747H256.364C256.684 60.2747 256.918 60.4007 257.065 60.6528C257.288 60.8419 257.372 61.094 257.316 61.4092L255.332 72.6596C255.277 72.9748 255.099 73.2584 254.798 73.5105C254.573 73.6996 254.3 73.7941 253.98 73.7941H244.476C244.156 73.7941 243.968 73.9517 243.913 74.2668L242.813 80.5066C242.757 80.8217 242.889 80.9793 243.209 80.9793H260.969C261.289 80.9793 261.523 81.1053 261.671 81.3574C261.893 81.5465 261.977 81.7986 261.921 82.1138L259.954 93.2697C259.899 93.5848 259.721 93.8684 259.42 94.1206C259.195 94.3096 258.922 94.4042 258.602 94.4042H225.578C225.258 94.4042 224.987 94.3096 224.764 94.1206C224.617 93.8684 224.571 93.5848 224.626 93.2697L233.861 40.8937C233.917 40.5785 234.058 40.3264 234.283 40.1373C234.583 39.8852 234.894 39.7592 235.214 39.7592H268.238C268.558 39.7592 268.791 39.8852 268.939 40.1373C269.162 40.3264 269.245 40.5785 269.189 40.8937L267.206 52.1441ZM282.489 95.066C278.777 95.066 275.592 94.4357 272.935 93.1751C270.341 91.9146 268.471 90.1813 267.323 87.9754C266.188 85.7064 265.87 83.1537 266.37 80.3175L266.72 78.3321C266.775 78.017 266.916 77.7649 267.141 77.5758C267.442 77.3237 267.752 77.1976 268.072 77.1976H281.512C281.832 77.1976 282.066 77.3237 282.213 77.5758C282.436 77.7649 282.519 78.017 282.464 78.3321L282.43 78.5212C282.253 79.5296 282.37 80.3175 282.782 80.8847C283.258 81.452 283.976 81.7356 284.936 81.7356C285.832 81.7356 286.58 81.4835 287.181 80.9793C287.782 80.4751 288.155 79.8133 288.299 78.9939C288.444 78.1745 288.076 77.3552 287.197 76.5358C286.328 75.6534 284.796 74.3614 282.6 72.6596C279.672 70.3906 277.657 68.7519 276.555 67.7435C274.203 65.4745 272.49 63.3945 271.415 61.5037C270.352 59.5499 270.031 57.3754 270.453 54.9804C271.287 50.2533 273.655 46.4401 277.558 43.5408C281.537 40.5785 286.374 39.0974 292.07 39.0974C295.782 39.0974 298.929 39.7592 301.512 41.0827C304.159 42.4063 306.039 44.2656 307.152 46.6607C308.341 48.9927 308.663 51.7029 308.119 54.7913L307.985 55.5476C307.93 55.8627 307.752 56.1464 307.451 56.3985C307.226 56.5876 306.953 56.6821 306.633 56.6821H293.289C292.969 56.6821 292.698 56.5876 292.475 56.3985C292.328 56.1464 292.282 55.8627 292.337 55.5476C292.493 54.6652 292.295 53.9719 291.744 53.4677C291.268 52.9004 290.582 52.6168 289.686 52.6168C288.662 52.6168 287.823 52.8374 287.169 53.2786C286.58 53.7198 286.224 54.287 286.101 54.9804C285.912 56.0518 286.252 57.0288 287.121 57.9111C288.064 58.7305 289.788 60.0226 292.293 61.7873C295.16 63.6782 297.457 65.3484 299.186 66.798C300.914 68.2477 302.293 70.044 303.323 72.1869C304.429 74.2668 304.748 76.6304 304.281 79.2775C303.437 84.0676 300.999 87.9123 296.967 90.8116C293.011 93.6478 288.185 95.066 282.489 95.066ZM353.549 39.7592C353.869 39.7592 354.102 39.8852 354.25 40.1373C354.473 40.3264 354.556 40.5785 354.5 40.8937L352.517 52.1441C352.461 52.4592 352.283 52.7429 351.983 52.995C351.757 53.1841 351.485 53.2786 351.165 53.2786H340.221C339.901 53.2786 339.713 53.4362 339.657 53.7513L332.689 93.2697C332.634 93.5848 332.456 93.8684 332.155 94.1206C331.93 94.3096 331.657 94.4042 331.337 94.4042H317.705C317.385 94.4042 317.114 94.3096 316.891 94.1206C316.744 93.8684 316.698 93.5848 316.753 93.2697L323.721 53.7513C323.777 53.4362 323.645 53.2786 323.325 53.2786H312.669C312.349 53.2786 312.077 53.1841 311.855 52.995C311.707 52.7429 311.661 52.4592 311.717 52.1441L313.7 40.8937C313.756 40.5785 313.897 40.3264 314.122 40.1373C314.422 39.8852 314.733 39.7592 315.053 39.7592H353.549ZM366.507 95.066C360.491 95.066 356.001 93.4903 353.037 90.3389C350.084 87.1245 349.107 82.681 350.107 77.0085L353.608 57.1548C354.608 51.4823 357.146 47.0704 361.222 43.919C365.309 40.7046 370.36 39.0974 376.376 39.0974C382.328 39.0974 386.781 40.7046 389.734 43.919C392.698 47.0704 393.68 51.4823 392.68 57.1548L389.179 77.0085C388.179 82.681 385.636 87.1245 381.549 90.3389C377.473 93.4903 372.459 95.066 366.507 95.066ZM368.874 81.6411C371.242 81.6411 372.66 80.3175 373.127 77.6703L376.861 56.493C377.316 53.9089 376.36 52.6168 373.992 52.6168C371.56 52.6168 370.116 53.9089 369.661 56.493L365.927 77.6703C365.682 79.0569 365.792 80.0654 366.257 80.6957C366.786 81.3259 367.658 81.6411 368.874 81.6411ZM426.473 40.8937C426.529 40.5785 426.67 40.3264 426.895 40.1373C427.195 39.8852 427.506 39.7592 427.826 39.7592H441.266C441.586 39.7592 441.819 39.8852 441.967 40.1373C442.19 40.3264 442.273 40.5785 442.217 40.8937L432.982 93.2697C432.927 93.5848 432.749 93.8684 432.448 94.1206C432.223 94.3096 431.95 94.4042 431.63 94.4042H417.998C417.294 94.4042 416.896 94.1206 416.804 93.5533L411.318 70.7688C411.223 70.5797 411.112 70.4852 410.984 70.4852C410.856 70.4852 410.769 70.6112 410.725 70.8633L406.966 93.2697C406.911 93.5848 406.733 93.8684 406.432 94.1206C406.207 94.3096 405.934 94.4042 405.614 94.4042H392.078C391.758 94.4042 391.487 94.3096 391.264 94.1206C391.117 93.8684 391.071 93.5848 391.126 93.2697L400.361 40.8937C400.417 40.5785 400.558 40.3264 400.783 40.1373C401.083 39.8852 401.394 39.7592 401.714 39.7592H415.25C415.954 39.7592 416.352 40.0428 416.444 40.61L422.009 63.4891C422.104 63.6782 422.215 63.7727 422.343 63.7727C422.471 63.7727 422.558 63.6467 422.602 63.3945L426.473 40.8937ZM481.049 52.1441C480.994 52.4592 480.816 52.7429 480.515 52.995C480.29 53.1841 480.017 53.2786 479.697 53.2786H461.937C461.617 53.2786 461.43 53.4362 461.374 53.7513L460.307 59.802C460.252 60.1171 460.384 60.2747 460.704 60.2747H470.208C470.528 60.2747 470.762 60.4007 470.909 60.6528C471.132 60.8419 471.215 61.094 471.16 61.4092L469.176 72.6596C469.12 72.9748 468.942 73.2584 468.642 73.5105C468.417 73.6996 468.144 73.7941 467.824 73.7941H458.32C458 73.7941 457.812 73.9517 457.757 74.2668L456.656 80.5066C456.601 80.8217 456.733 80.9793 457.053 80.9793H474.813C475.133 80.9793 475.367 81.1053 475.514 81.3574C475.737 81.5465 475.821 81.7986 475.765 82.1138L473.798 93.2697C473.742 93.5848 473.564 93.8684 473.264 94.1206C473.039 94.3096 472.766 94.4042 472.446 94.4042H439.422C439.102 94.4042 438.831 94.3096 438.608 94.1206C438.46 93.8684 438.414 93.5848 438.47 93.2697L447.705 40.8937C447.761 40.5785 447.901 40.3264 448.127 40.1373C448.427 39.8852 448.737 39.7592 449.057 39.7592H482.081C482.401 39.7592 482.635 39.8852 482.783 40.1373C483.005 40.3264 483.089 40.5785 483.033 40.8937L481.049 52.1441Z" fill="#E0E0E0"/>
</svg>
