<svg width="16" height="16" viewBox="0 0 16 16" fill="none" xmlns="http://www.w3.org/2000/svg">
<path d="M3.98058 10.7235C4.2845 10.9094 4.63895 11.0214 5.01866 11.034L5.90147 11.0633L6.54601 11.6669L6.58507 11.702C6.75999 11.8579 6.95493 11.98 7.16026 12.0682L5.79112 14.7587C5.67927 14.9784 5.37451 15.0002 5.23253 14.7987L4.06163 13.1346C4.01589 13.0697 3.94744 13.0234 3.87022 13.0047L2.30089 12.6268C2.03061 12.5613 1.96055 12.2096 2.18468 12.0448L3.98058 10.7235ZM7.44054 1.28306C7.75506 0.988706 8.24408 0.98887 8.5587 1.28306L9.33897 2.01256C9.48364 2.14787 9.67226 2.2266 9.87022 2.23326L10.9376 2.26842C11.3683 2.28267 11.7143 2.62876 11.7286 3.05943L11.7638 4.12584C11.7703 4.32406 11.849 4.51327 11.9845 4.65806L12.714 5.43736C13.0083 5.75185 13.008 6.2409 12.714 6.55553L11.9845 7.3358C11.8491 7.48048 11.7704 7.66902 11.7638 7.86705L11.7599 7.99986H10.0001V9.75572L9.87022 9.7606C9.6722 9.76727 9.48365 9.84592 9.33897 9.98131L9.31944 9.99986H8.00011V10.9315C7.79916 10.9315 7.59787 10.858 7.44054 10.7108L6.66124 9.98131C6.51644 9.84578 6.32723 9.76716 6.12901 9.7606L5.06261 9.72545C4.63194 9.71117 4.28584 9.36511 4.27159 8.93443L4.23643 7.86705C4.22977 7.66909 4.15104 7.48046 4.01573 7.3358L3.28624 6.55553C2.99205 6.2409 2.99188 5.75189 3.28624 5.43736L4.01573 4.65806C4.1512 4.51328 4.22988 4.32401 4.23643 4.12584L4.27159 3.05943C4.28586 2.62877 4.63195 2.28269 5.06261 2.26842L6.12901 2.23326C6.32719 2.2267 6.51645 2.14803 6.66124 2.01256L7.44054 1.28306ZM8.44737 3.46959C8.19573 3.23409 7.80454 3.23419 7.55284 3.46959L7.29991 3.70592C7.18424 3.81402 7.03334 3.87634 6.87511 3.8817L6.5294 3.89342C6.18491 3.90485 5.90803 4.18173 5.89659 4.52623L5.88487 4.87193C5.87952 5.03033 5.8174 5.18199 5.70909 5.29771L5.47276 5.54967C5.23734 5.80136 5.23726 6.19255 5.47276 6.4442L5.70909 6.69615C5.81746 6.81194 5.87958 6.96343 5.88487 7.12193L5.89659 7.46763C5.90808 7.81208 6.18495 8.08901 6.5294 8.10045L6.87511 8.11119C7.03342 8.11654 7.18421 8.17975 7.29991 8.28795L7.55284 8.52428C7.80451 8.75957 8.19576 8.75966 8.44737 8.52428L8.69933 8.28795C8.81512 8.17959 8.96661 8.11647 9.12511 8.11119L9.47081 8.10045C9.81522 8.08895 10.0921 7.81205 10.1036 7.46763L10.1144 7.12193C10.1197 6.96344 10.1828 6.81194 10.2911 6.69615L10.5275 6.4442C10.7628 6.19258 10.7627 5.80133 10.5275 5.54967L10.2911 5.29771C10.1828 5.18198 10.1197 5.03034 10.1144 4.87193L10.1036 4.52623C10.0922 4.18178 9.81524 3.90492 9.47081 3.89342L9.12511 3.8817C8.9666 3.87641 8.81512 3.81429 8.69933 3.70592L8.44737 3.46959Z" fill="#E0E0E0"/>
<path d="M13 9V11H15V13H13V15H11V13H9V11H11V9H13Z" fill="#5fff97"/>
</svg>
