<svg width="16" height="16" viewBox="0 0 16 16" fill="none" xmlns="http://www.w3.org/2000/svg">
<path d="M3.98066 10.7236C4.28469 10.9095 4.63917 11.0214 5.01902 11.0339L5.90155 11.063L6.54627 11.6665L6.58495 11.7018C6.75991 11.8578 6.95444 11.9796 7.15983 12.0678L5.7916 14.7587C5.67977 14.9786 5.37419 15.0004 5.23222 14.7987L4.06137 13.135C4.01563 13.07 3.9478 13.0238 3.87054 13.0052L2.30126 12.6264C2.03077 12.5611 1.96007 12.2093 2.18427 12.0445L3.98066 10.7236Z" fill="#E0E0E0"/>
<path d="M13.8157 12.0445C14.0399 12.2093 13.9692 12.5611 13.6987 12.6264L12.1295 13.0052C12.0522 13.0238 11.9844 13.07 11.9386 13.135L10.7678 14.7987C10.6258 15.0004 10.3202 14.9786 10.2084 14.7587L8.84003 12.0677C9.06074 11.9729 9.26904 11.8395 9.4539 11.6665L10.0985 11.063L10.981 11.0339L11.0334 11.0315C11.3933 11.0109 11.7288 10.9004 12.0187 10.7231L13.8157 12.0445Z" fill="#E0E0E0"/>
<path d="M8.52917 10.7373C8.51408 10.7501 8.49843 10.7621 8.48267 10.7736C8.48782 10.7698 8.49308 10.7662 8.49817 10.7622L8.52917 10.7373Z" fill="#E0E0E0"/>
<path fill-rule="evenodd" clip-rule="evenodd" d="M7.44087 1.28317C7.75549 0.98872 8.24452 0.988705 8.55914 1.28317L9.33858 2.01259C9.48337 2.14811 9.67243 2.22658 9.87063 2.23315L10.9376 2.26831C11.3683 2.28256 11.7141 2.62843 11.7284 3.0591L11.7637 4.12607C11.7703 4.32429 11.8486 4.51347 11.9841 4.65827L12.7137 5.43772C13.0081 5.75234 13.0081 6.24138 12.7137 6.55599L11.9841 7.33544C11.8486 7.48022 11.7703 7.66929 11.7637 7.86748L11.7284 8.93445C11.7141 9.36514 11.3683 9.71099 10.9376 9.72524L9.87063 9.76056C9.67244 9.76713 9.48337 9.84546 9.33858 9.98096L8.55914 10.7105C8.24453 11.005 7.75548 11.005 7.44087 10.7105L6.66142 9.98096C6.51662 9.84543 6.32743 9.76712 6.12921 9.76056L5.06225 9.72524C4.63158 9.71097 4.2857 9.36513 4.27145 8.93445L4.23629 7.86748C4.22972 7.66928 4.15125 7.48023 4.01574 7.33544L3.28631 6.55599C2.99185 6.24137 2.99187 5.75234 3.28631 5.43772L4.01574 4.65827C4.15126 4.51347 4.22973 4.32429 4.23629 4.12607L4.27145 3.0591C4.28572 2.62844 4.63159 2.28258 5.06225 2.26831L6.12921 2.23315C6.32743 2.22659 6.51662 2.14812 6.66142 2.01259L7.44087 1.28317ZM8.44726 3.46968C8.19556 3.23413 7.80427 3.23411 7.55258 3.46968L7.30038 3.70574C7.18454 3.81416 7.03319 3.87693 6.87462 3.88218L6.52925 3.89353C6.18475 3.90497 5.90811 4.18161 5.89667 4.5261L5.88533 4.87147C5.88008 5.03005 5.8173 5.1814 5.70888 5.29724L5.47283 5.54944C5.23726 5.80113 5.23728 6.19242 5.47283 6.44411L5.70888 6.69647C5.81729 6.8123 5.88007 6.96352 5.88533 7.12208L5.89667 7.46745C5.90807 7.81198 6.18473 8.08858 6.52925 8.10002L6.87462 8.11153C7.03319 8.11678 7.18455 8.1794 7.30038 8.28781L7.55258 8.52403C7.80426 8.75959 8.19556 8.75956 8.44726 8.52403L8.69962 8.28781C8.81544 8.17943 8.96668 8.11679 9.12522 8.11153L9.4706 8.10002C9.81515 8.08862 10.0918 7.81201 10.1032 7.46745L10.1147 7.12208C10.1199 6.96354 10.1826 6.81229 10.291 6.69647L10.5272 6.44411C10.7627 6.19241 10.7627 5.80112 10.5272 5.54944L10.291 5.29724C10.1825 5.1814 10.1199 5.03004 10.1147 4.87147L10.1032 4.5261C10.0917 4.18158 9.81512 3.90493 9.4706 3.89353L9.12522 3.88218C8.96667 3.87692 8.81544 3.81415 8.69962 3.70574L8.44726 3.46968Z" fill="#E0E0E0"/>
</svg>
